<svg width="82" height="44" viewBox="0 0 82 44" fill="none" xmlns="http://www.w3.org/2000/svg">
<path d="M59.875 9.375C58.3298 9.375 56.8194 9.8332 55.5346 10.6916C54.2499 11.5501 53.2485 12.7702 52.6572 14.1978C52.0659 15.6253 51.9112 17.1962 52.2126 18.7116C52.5141 20.2271 53.2581 21.6192 54.3507 22.7118C55.4433 23.8044 56.8354 24.5484 58.3509 24.8499C59.8663 25.1513 61.4372 24.9966 62.8647 24.4053C64.2923 23.814 65.5124 22.8127 66.3709 21.5279C67.2293 20.2431 67.6875 18.7327 67.6875 17.1875C67.6875 15.1155 66.8644 13.1284 65.3993 11.6632C63.9341 10.1981 61.947 9.375 59.875 9.375Z" fill="#333333"/>
<path fill-rule="evenodd" clip-rule="evenodd" d="M1.15385 12C0.847827 12 0.554342 12.1229 0.337954 12.3417C0.121566 12.5605 0 12.8572 0 13.1667C0 13.4761 0.121566 13.7728 0.337954 13.9916C0.554342 14.2104 0.847827 14.3333 1.15385 14.3333H28.8462C29.1522 14.3333 29.4457 14.2104 29.662 13.9916C29.8784 13.7728 30 13.4761 30 13.1667C30 12.8572 29.8784 12.5605 29.662 12.3417C29.4457 12.1229 29.1522 12 28.8462 12H1.15385ZM0 22.5C0 22.1906 0.121566 21.8938 0.337954 21.675C0.554342 21.4562 0.847827 21.3333 1.15385 21.3333H28.8462C29.1522 21.3333 29.4457 21.4562 29.662 21.675C29.8784 21.8938 30 22.1906 30 22.5C30 22.8094 29.8784 23.1062 29.662 23.325C29.4457 23.5437 29.1522 23.6667 28.8462 23.6667H1.15385C0.847827 23.6667 0.554342 23.5437 0.337954 23.325C0.121566 23.1062 0 22.8094 0 22.5V22.5ZM0 31.8333C0 31.5239 0.121566 31.2272 0.337954 31.0084C0.554342 30.7896 0.847827 30.6667 1.15385 30.6667H28.8462C29.1522 30.6667 29.4457 30.7896 29.662 31.0084C29.8784 31.2272 30 31.5239 30 31.8333C30 32.1428 29.8784 32.4395 29.662 32.6583C29.4457 32.8771 29.1522 33 28.8462 33H1.15385C0.847827 33 0.554342 32.8771 0.337954 32.6583C0.121566 32.4395 0 32.1428 0 31.8333V31.8333Z" fill="#333333"/>
<path d="M59.875 0C55.5485 0 51.3192 1.28295 47.7219 3.6866C44.1246 6.09026 41.3208 9.50667 39.6651 13.5038C38.0095 17.5009 37.5763 21.8993 38.4203 26.1426C39.2644 30.3859 41.3478 34.2837 44.407 37.343C47.4663 40.4022 51.3641 42.4856 55.6074 43.3297C59.8507 44.1737 64.2491 43.7405 68.2462 42.0849C72.2433 40.4292 75.6598 37.6254 78.0634 34.0281C80.4671 30.4308 81.75 26.2015 81.75 21.875C81.7434 16.0754 79.4366 10.5153 75.3357 6.41435C71.2347 2.31342 65.6746 0.00661675 59.875 0V0ZM72.3625 35.8219C72.3314 33.7724 71.4964 31.8172 70.0374 30.3775C68.5784 28.9378 66.6122 28.1289 64.5625 28.125H55.1875C53.1378 28.1289 51.1716 28.9378 49.7126 30.3775C48.2537 31.8172 47.4186 33.7724 47.3875 35.8219C44.554 33.2918 42.5558 29.9607 41.6576 26.2698C40.7593 22.5788 41.0033 18.7021 42.3573 15.1529C43.7112 11.6037 46.1113 8.54948 49.2397 6.39464C52.368 4.23979 56.0771 3.08598 59.8758 3.08598C63.6745 3.08598 67.3836 4.23979 70.5119 6.39464C73.6403 8.54948 76.0404 11.6037 77.3943 15.1529C78.7483 18.7021 78.9923 22.5788 78.094 26.2698C77.1957 29.9607 75.1976 33.2918 72.3641 35.8219H72.3625Z" fill="#333333"/>
</svg>
