<svg width="14" height="14" viewBox="0 0 14 14" fill="none" xmlns="http://www.w3.org/2000/svg">
<path d="M10.4818 8.6224V9.61588C10.4818 9.9197 10.3709 10.1901 10.1491 10.4271C9.9273 10.6641 9.64171 10.8479 9.29232 10.9785C8.94293 11.1092 8.58442 11.2079 8.2168 11.2747C7.84917 11.3416 7.49219 11.375 7.14583 11.375C5.90017 11.375 4.85959 10.9527 4.02409 10.1081C3.18859 9.26345 2.77083 8.21224 2.77083 6.95443C2.77083 5.72092 3.18403 4.69097 4.01042 3.86458C4.83681 3.03819 5.86675 2.625 7.10026 2.625C7.30686 2.625 7.53624 2.63867 7.78841 2.66602C8.04058 2.69336 8.32313 2.74805 8.63607 2.83008C8.949 2.91211 9.23003 3.01541 9.47917 3.13997C9.7283 3.26454 9.93793 3.4362 10.1081 3.65495C10.2782 3.8737 10.3633 4.11979 10.3633 4.39323V5.38672C10.3633 5.48394 10.3147 5.53255 10.2174 5.53255H9.14193C9.0447 5.53255 8.99609 5.48394 8.99609 5.38672V4.7487C8.99609 4.48741 8.79709 4.28233 8.39909 4.13346C8.00108 3.98459 7.58333 3.91016 7.14583 3.91016C6.29514 3.91016 5.60091 4.18815 5.06315 4.74414C4.52539 5.30013 4.25651 6.0217 4.25651 6.90885C4.25651 7.82639 4.5345 8.58442 5.09049 9.18294C5.64648 9.78147 6.3559 10.0807 7.21875 10.0807C7.63194 10.0807 8.05122 10.0078 8.47656 9.86198C8.90191 9.71615 9.11458 9.51562 9.11458 9.26042V8.6224C9.11458 8.57986 9.12825 8.54492 9.1556 8.51758C9.18294 8.49023 9.21484 8.47656 9.2513 8.47656H10.3359C10.3724 8.47656 10.4058 8.49023 10.4362 8.51758C10.4666 8.54492 10.4818 8.57986 10.4818 8.6224ZM7 1.16667C6.21007 1.16667 5.45508 1.32161 4.73503 1.63151C4.01497 1.94141 3.39518 2.35612 2.87565 2.87565C2.35612 3.39518 1.94141 4.01497 1.63151 4.73503C1.32161 5.45508 1.16667 6.21007 1.16667 7C1.16667 7.78993 1.32161 8.54492 1.63151 9.26497C1.94141 9.98503 2.35612 10.6048 2.87565 11.1243C3.39518 11.6439 4.01497 12.0586 4.73503 12.3685C5.45508 12.6784 6.21007 12.8333 7 12.8333C7.78993 12.8333 8.54492 12.6784 9.26497 12.3685C9.98503 12.0586 10.6048 11.6439 11.1243 11.1243C11.6439 10.6048 12.0586 9.98503 12.3685 9.26497C12.6784 8.54492 12.8333 7.78993 12.8333 7C12.8333 6.21007 12.6784 5.45508 12.3685 4.73503C12.0586 4.01497 11.6439 3.39518 11.1243 2.87565C10.6048 2.35612 9.98503 1.94141 9.26497 1.63151C8.54492 1.32161 7.78993 1.16667 7 1.16667ZM14 7C14 8.26997 13.6871 9.44119 13.0612 10.5137C12.4353 11.5862 11.5862 12.4353 10.5137 13.0612C9.44119 13.6871 8.26997 14 7 14C5.73003 14 4.55881 13.6871 3.48633 13.0612C2.41385 12.4353 1.56467 11.5862 0.938802 10.5137C0.312934 9.44119 0 8.26997 0 7C0 5.73003 0.312934 4.55881 0.938802 3.48633C1.56467 2.41385 2.41385 1.56467 3.48633 0.938802C4.55881 0.312934 5.73003 0 7 0C8.26997 0 9.44119 0.312934 10.5137 0.938802C11.5862 1.56467 12.4353 2.41385 13.0612 3.48633C13.6871 4.55881 14 5.73003 14 7Z" fill="black"/>
</svg>
