<svg width="27" height="27" viewBox="0 0 27 27" fill="none" xmlns="http://www.w3.org/2000/svg">
<path d="M21.9375 0C23.332 0 24.5244 0.495117 25.5146 1.48535C26.5049 2.47559 27 3.66797 27 5.0625V21.9375C27 23.332 26.5049 24.5244 25.5146 25.5146C24.5244 26.5049 23.332 27 21.9375 27H18.6328V16.541H22.1309L22.6582 12.4629H18.6328V9.86133C18.6328 9.20508 18.7705 8.71289 19.0459 8.38477C19.3213 8.05664 19.8574 7.89258 20.6543 7.89258L22.7988 7.875V4.23633C22.0605 4.13086 21.0176 4.07812 19.6699 4.07812C18.0762 4.07812 16.8018 4.54688 15.8467 5.48438C14.8916 6.42188 14.4141 7.74609 14.4141 9.45703V12.4629H10.8984V16.541H14.4141V27H5.0625C3.66797 27 2.47559 26.5049 1.48535 25.5146C0.495117 24.5244 0 23.332 0 21.9375V5.0625C0 3.66797 0.495117 2.47559 1.48535 1.48535C2.47559 0.495117 3.66797 0 5.0625 0H21.9375Z" fill="#F50057"/>
</svg>
