<svg width="24" height="24" viewBox="0 0 24 24" fill="none" xmlns="http://www.w3.org/2000/svg">
<g clip-path="url(#clip0_53_205)">
<path d="M11.9998 4.12192L10.9243 3.01642C8.39984 0.42142 3.77084 1.31692 2.09984 4.57942C1.31534 6.11392 1.13834 8.32942 2.57084 11.1569C3.95084 13.8794 6.82184 17.1404 11.9998 20.6924C17.1778 17.1404 20.0473 13.8794 21.4288 11.1569C22.8613 8.32792 22.6858 6.11392 21.8998 4.57942C20.2288 1.31692 15.5998 0.41992 13.0753 3.01492L11.9998 4.12192ZM11.9998 22.4999C-10.9997 7.30192 4.91834 -4.56008 11.7358 1.71442C11.8258 1.79692 11.9143 1.88242 11.9998 1.97092C12.0845 1.8825 12.1725 1.79744 12.2638 1.71592C19.0798 -4.56308 34.9993 7.30042 11.9998 22.4999Z" fill="#EC0000"/>
</g>
<defs>
<clipPath id="clip0_53_205">
<rect width="24" height="24" fill="white"/>
</clipPath>
</defs>
</svg>
