<svg width="25" height="27" viewBox="0 0 25 27" fill="none" xmlns="http://www.w3.org/2000/svg">
<path d="M12.5 10.4788C11.9113 10.479 11.336 10.6564 10.8466 10.9885C10.3573 11.3206 9.97593 11.7925 9.75081 12.3446C9.52569 12.8967 9.46691 13.5041 9.58188 14.0901C9.69686 14.6761 9.98044 15.2143 10.3968 15.6367C10.8131 16.0591 11.3435 16.3468 11.9208 16.4632C12.4982 16.5797 13.0966 16.5198 13.6405 16.2911C14.1843 16.0624 14.6491 15.6752 14.9761 15.1784C15.3031 14.6816 15.4777 14.0975 15.4777 13.5C15.4771 12.6987 15.1631 11.9304 14.6048 11.3639C14.0465 10.7975 13.2894 10.4791 12.5 10.4788V10.4788ZM19.4593 8.15652C19.3077 7.76675 19.0789 7.41273 18.787 7.11643C18.4951 6.82014 18.1463 6.58789 17.7623 6.43408C16.5904 5.96453 13.8002 6.06988 12.5 6.06988C11.1998 6.06988 8.41239 5.96057 7.23717 6.43408C6.85315 6.58789 6.50436 6.82014 6.21245 7.11643C5.92053 7.41273 5.69171 7.76675 5.54018 8.15652C5.07812 9.34598 5.18136 12.1808 5.18136 13.4994C5.18136 14.818 5.07812 17.6495 5.54241 18.8429C5.69394 19.2327 5.92276 19.5867 6.21468 19.883C6.5066 20.1793 6.85538 20.4115 7.2394 20.5654C8.41127 21.0349 11.2015 20.9296 12.5022 20.9296C13.803 20.9296 16.5893 21.0389 17.7645 20.5654C18.1485 20.4115 18.4973 20.1793 18.7892 19.883C19.0811 19.5867 19.31 19.2327 19.4615 18.8429C19.9275 17.6535 19.8203 14.8186 19.8203 13.5C19.8203 12.1814 19.9275 9.35051 19.4615 8.15709L19.4593 8.15652ZM12.5 18.1445C11.595 18.1445 10.7103 17.8721 9.95777 17.3618C9.20527 16.8514 8.61876 16.1261 8.27243 15.2774C7.92609 14.4287 7.83547 13.4948 8.01203 12.5939C8.18859 11.6929 8.6244 10.8654 9.26435 10.2158C9.90431 9.56627 10.7197 9.12392 11.6073 8.94471C12.4949 8.7655 13.415 8.85748 14.2511 9.20901C15.0873 9.56055 15.8019 10.1558 16.3047 10.9196C16.8075 11.6834 17.0759 12.5814 17.0759 13.5C17.0766 14.1101 16.9588 14.7144 16.7291 15.2783C16.4994 15.8421 16.1623 16.3544 15.7373 16.7858C15.3122 17.2173 14.8075 17.5594 14.252 17.7925C13.6965 18.0257 13.1011 18.1453 12.5 18.1445V18.1445ZM17.2645 9.74473C17.0532 9.74484 16.8467 9.68135 16.671 9.5623C16.4952 9.44324 16.3583 9.27397 16.2773 9.07589C16.1964 8.8778 16.1752 8.65981 16.2163 8.44947C16.2575 8.23914 16.3592 8.04592 16.5085 7.89425C16.6579 7.74258 16.8482 7.63927 17.0554 7.5974C17.2626 7.55552 17.4774 7.57696 17.6726 7.65899C17.8678 7.74103 18.0346 7.87998 18.152 8.05827C18.2694 8.23656 18.332 8.44619 18.332 8.66062C18.3326 8.80303 18.3055 8.94415 18.2522 9.07589C18.199 9.20763 18.1206 9.3274 18.0216 9.42833C17.9227 9.52926 17.805 9.60936 17.6755 9.66405C17.5459 9.71873 17.407 9.74692 17.2667 9.74699L17.2645 9.74473ZM22.3214 0.8125H2.67857C1.96817 0.8125 1.28686 1.09894 0.784535 1.6088C0.282206 2.11867 0 2.81019 0 3.53125L0 23.4688C0 24.1898 0.282206 24.8813 0.784535 25.3912C1.28686 25.9011 1.96817 26.1875 2.67857 26.1875H22.3214C23.0318 26.1875 23.7131 25.9011 24.2155 25.3912C24.7178 24.8813 25 24.1898 25 23.4688V3.53125C25 2.81019 24.7178 2.11867 24.2155 1.6088C23.7131 1.09894 23.0318 0.8125 22.3214 0.8125V0.8125ZM21.3661 17.2383C21.2941 18.69 20.9676 19.9763 19.9235 21.0332C18.8795 22.0901 17.6133 22.4283 16.1847 22.4974C14.7109 22.5818 10.2924 22.5818 8.81864 22.4974C7.38839 22.4243 6.12556 22.0924 5.0798 21.0332C4.03404 19.974 3.70536 18.6871 3.63728 17.2383C3.55413 15.7418 3.55413 11.2565 3.63728 9.76172C3.70926 8.31002 4.03181 7.02371 5.0798 5.9668C6.12779 4.90988 7.39397 4.5757 8.81864 4.5066C10.2924 4.42221 14.7109 4.42221 16.1847 4.5066C17.615 4.57967 18.8817 4.91158 19.9235 5.97076C20.9654 7.02994 21.298 8.31682 21.3661 9.76852C21.4492 11.2593 21.4492 15.7407 21.3661 17.2383Z" fill="#F50057"/>
</svg>
