<?xml version="1.0" standalone="no"?>
<!DOCTYPE svg PUBLIC "-//W3C//DTD SVG 20010904//EN"
 "http://www.w3.org/TR/2001/REC-SVG-20010904/DTD/svg10.dtd">
<svg version="1.0" xmlns="http://www.w3.org/2000/svg"
 width="200.000000pt" height="200.000000pt" viewBox="0 0 200.000000 200.000000"
 preserveAspectRatio="xMidYMid meet">

<g transform="translate(0.000000,200.000000) scale(0.100000,-0.100000)"
fill="#000000" stroke="none">
<path d="M541 1749 c0 -8 11 -41 24 -74 20 -51 25 -57 31 -37 3 12 8 22 10 22
5 0 307 -309 339 -348 l28 -34 -154 -154 c-121 -121 -159 -154 -180 -154 -34
0 -59 -26 -32 -33 11 -3 5 -5 -13 -6 -44 -2 -61 -22 -32 -38 22 -12 22 -12 -8
-13 -17 0 -37 -7 -44 -15 -10 -12 -10 -15 4 -15 24 0 20 -13 -19 -50 -36 -35
-45 -60 -22 -60 7 0 26 13 42 30 15 16 32 27 37 24 14 -9 38 16 38 40 0 14 3
17 8 9 9 -14 82 56 82 78 0 8 72 86 161 174 l161 160 157 -163 c133 -137 157
-167 153 -188 -4 -23 12 -54 29 -54 4 0 10 10 12 23 3 17 5 16 6 -8 2 -33 31
-82 31 -53 0 9 4 19 9 22 4 3 6 -6 3 -19 -4 -25 12 -55 29 -55 5 0 9 10 9 23
1 19 5 17 39 -20 38 -43 61 -54 61 -31 0 7 -15 27 -32 46 -23 24 -29 36 -20
39 21 8 -6 33 -37 34 -14 0 -20 3 -13 6 10 4 9 9 -4 24 -9 10 -20 16 -25 14
-4 -3 -10 -1 -14 5 -3 5 -1 10 6 10 8 0 8 4 -1 15 -7 8 -20 15 -29 15 -14 0
-198 180 -311 303 l-34 37 194 195 195 195 12 -27 c11 -26 12 -27 19 -8 4 11
16 42 26 69 10 27 17 50 15 53 -5 4 -118 -37 -132 -49 -5 -5 -2 -8 8 -8 9 0
17 -3 17 -8 0 -4 -86 -93 -191 -197 l-190 -190 -184 190 c-180 186 -183 190
-159 201 25 10 24 11 -28 31 -29 12 -61 24 -70 28 -12 5 -18 3 -17 -6z"/>
<path d="M1071 1737 c-60 -30 -94 -83 -99 -158 -3 -33 -10 -64 -18 -70 -8 -6
-14 -19 -14 -27 0 -11 9 -7 33 15 17 17 46 34 62 37 73 16 143 135 120 205 -8
27 -29 26 -84 -2z m37 -26 c-7 -12 -18 -21 -24 -21 -6 0 -14 -14 -18 -31 -5
-27 -8 -30 -21 -19 -13 11 -15 9 -15 -13 0 -13 -9 -35 -21 -48 l-20 -24 6 40
c9 56 34 93 80 120 44 27 52 26 33 -4z m16 -46 c-7 -41 -62 -105 -89 -105 -17
0 -17 1 0 20 10 11 27 20 38 20 16 0 17 3 7 15 -14 16 -5 35 16 35 8 0 14 6
13 13 -3 15 12 50 18 43 2 -2 1 -20 -3 -41z"/>
<path d="M1382 1448 c-48 -61 -55 -136 -16 -167 36 -28 58 -26 83 5 28 35 27
51 -9 107 -16 26 -30 52 -30 57 0 14 -16 12 -28 -2z m38 -63 c24 -39 23 -83
-2 -99 -22 -14 -58 18 -58 51 0 22 25 83 34 83 3 0 14 -16 26 -35z"/>
<path d="M1449 1231 l-44 -39 -42 25 c-58 34 -79 24 -24 -12 l43 -29 -31 -25
c-54 -45 -33 -58 24 -16 l33 26 46 -23 c25 -12 49 -18 53 -14 5 5 4 10 -2 12
-5 2 -25 13 -43 24 l-32 20 40 36 c39 35 50 54 31 54 -5 0 -29 -18 -52 -39z"/>
<path d="M860 976 c-5 -13 -18 -27 -29 -31 -12 -3 -21 -11 -21 -16 0 -12 27
-11 52 2 14 8 23 8 31 0 15 -15 70 -14 85 1 9 9 17 9 36 -2 15 -7 36 -10 53
-6 35 9 51 9 86 0 32 -8 38 11 6 21 -11 4 -25 18 -31 31 -12 27 -28 32 -28 9
0 -8 -11 -22 -24 -30 -30 -20 -66 -6 -66 25 0 11 -7 20 -15 20 -8 0 -15 -6
-15 -13 0 -8 -9 -22 -20 -32 -18 -17 -21 -17 -45 -1 -14 9 -25 23 -25 31 0 24
-20 17 -30 -9z"/>
<path d="M604 655 c-24 -37 -9 -74 39 -100 22 -12 37 -27 37 -39 0 -16 -6 -18
-46 -13 -42 4 -45 3 -42 -17 4 -31 88 -36 117 -7 37 37 19 87 -39 111 -19 8
-30 20 -30 32 0 16 6 19 38 16 31 -2 37 0 37 17 0 17 -8 20 -47 23 -41 3 -49
0 -64 -23z"/>
<path d="M778 570 l-36 -110 24 0 c17 0 25 7 30 25 5 21 12 25 45 25 33 0 41
-4 49 -25 9 -23 50 -37 50 -17 0 4 -15 53 -33 107 -32 94 -35 100 -63 103 -29
3 -30 2 -66 -108z m86 8 c6 -25 4 -28 -19 -28 -29 0 -29 1 -14 55 12 42 17 39
33 -27z"/>
<path d="M970 570 l0 -110 25 0 c23 0 25 4 25 45 0 45 0 45 35 45 24 0 35 5
35 15 0 10 -11 15 -35 15 -32 0 -35 2 -35 30 0 28 2 30 40 30 33 0 40 3 40 20
0 18 -7 20 -65 20 l-65 0 0 -110z"/>
<path d="M1140 570 c0 -103 1 -110 20 -110 19 0 20 7 20 110 0 103 -1 110 -20
110 -19 0 -20 -7 -20 -110z"/>
<path d="M1240 570 c0 -103 1 -110 20 -110 17 0 20 7 20 40 0 53 22 53 52 0
16 -28 30 -40 46 -40 28 0 28 2 -4 50 -25 38 -26 41 -10 58 9 10 16 33 16 50
0 41 -31 62 -92 62 l-48 0 0 -110z m96 55 c8 -20 -13 -45 -37 -45 -14 0 -19 7
-19 30 0 25 4 30 25 30 14 0 28 -7 31 -15z"/>
</g>
</svg>
