<svg width="113" height="113" viewBox="0 0 113 113" fill="none" xmlns="http://www.w3.org/2000/svg">
<path d="M56.5 28.25C53.0079 28.25 49.5943 29.2855 46.6907 31.2256C43.7872 33.1657 41.5241 35.9232 40.1878 39.1495C38.8514 42.3758 38.5017 45.9258 39.183 49.3508C39.8643 52.7758 41.5459 55.9218 44.0152 58.3911C46.4844 60.8604 49.6305 62.542 53.0554 63.2232C56.4804 63.9045 60.0305 63.5549 63.2568 62.2185C66.483 60.8821 69.2406 58.6191 71.1806 55.7155C73.1207 52.812 74.1563 49.3983 74.1563 45.9063C74.1563 41.2235 72.2961 36.7326 68.9849 33.4214C65.6737 30.1102 61.1827 28.25 56.5 28.25Z" fill="black"/>
<path d="M56.5 7.0625C46.7222 7.0625 37.164 9.96196 29.034 15.3942C20.9041 20.8265 14.5675 28.5476 10.8257 37.5811C7.08392 46.6146 6.10489 56.5548 8.01245 66.1448C9.92001 75.7347 14.6285 84.5436 21.5424 91.4576C28.4564 98.3715 37.2653 103.08 46.8552 104.988C56.4452 106.895 66.3854 105.916 75.4189 102.174C84.4525 98.4325 92.1735 92.096 97.6058 83.966C103.038 75.836 105.938 66.2778 105.938 56.5C105.923 43.393 100.709 30.827 91.4411 21.5589C82.173 12.2908 69.6071 7.07745 56.5 7.0625V7.0625ZM84.7218 88.0199C84.6514 83.3881 82.7643 78.9693 79.467 75.7156C76.1697 72.4619 71.7261 70.6337 67.0938 70.625H45.9063C41.2739 70.6337 36.8304 72.4619 33.5331 75.7156C30.2358 78.9693 28.3486 83.3881 28.2783 88.0199C21.8746 82.302 17.3587 74.7738 15.3286 66.4322C13.2985 58.0907 13.8499 49.3292 16.9099 41.3081C19.9699 33.2869 25.394 26.3843 32.4641 21.5144C39.5342 16.6444 47.9168 14.0368 56.5018 14.0368C65.0868 14.0368 73.4694 16.6444 80.5395 21.5144C87.6096 26.3843 93.0337 33.2869 96.0937 41.3081C99.1536 49.3292 99.7051 58.0907 97.675 66.4322C95.6449 74.7738 91.129 82.302 84.7253 88.0199H84.7218Z" fill="black"/>
</svg>
